<svg width="3002" height="964" viewBox="0 0 3002 964" fill="none" xmlns="http://www.w3.org/2000/svg">
<path d="M73.2245 4.72C74.453 7.37095 76.1987 12.091 77.1686 15.2592C78.8497 20.7551 78.979 21.6603 78.979 34.915C79.0436 50.1742 78.591 53.3424 74.453 70.4767C70.1856 87.9342 60.7456 114.638 42.5121 160.997C22.8563 210.913 18.3302 223.327 15.6793 234.06C8.43763 263.738 10.83 291.67 22.7269 317.145C30.2919 333.309 44.1932 350.702 59.1291 362.729C67.5993 369.582 78.0738 375.854 79.173 374.755C79.4316 374.496 78.979 373.074 78.1384 371.587C72.9012 362.211 64.819 345.788 62.6206 339.969C58.0299 327.878 55.7669 317.08 54.8617 303.826C52.922 275.053 61.5215 244.211 86.156 191.063C99.5401 162.226 105.23 147.225 108.851 131.578C112.73 114.832 110.661 96.7923 101.738 69.7008C98.4409 59.8082 93.333 46.4887 88.7423 35.8849C84.9275 27.0268 71.802 0 71.3494 0C71.2201 0 72.0606 2.1337 73.2245 4.72Z" fill="#252525"/>
<path d="M126.308 112.178C128.442 119.031 129.153 124.204 129.153 134.808C129.153 158.343 122.364 181.297 104.713 216.858C91.5874 243.433 80.4663 269.231 76.8455 281.58C74.0006 291.408 73.354 303.37 75.2291 313.909C76.3929 320.828 80.4017 333.112 83.3112 338.867C85.8329 343.91 91.4581 352.38 92.2986 352.38C92.6219 352.38 92.1047 350.441 91.1995 347.984C87.9019 339.514 88.5485 324.254 92.6866 309.836C95.5315 300.137 98.6997 292.831 105.618 280.223C109.304 273.434 115.511 261.343 119.39 253.39C138.852 213.302 143.831 194.616 142.15 167.525C141.05 150.261 137.106 134.679 129.024 115.734C125.209 106.746 124.175 105.389 126.308 112.178Z" fill="#252525"/>
<path d="M157.15 163.774C162.71 179.162 161.805 206.577 154.951 233.41C150.49 250.544 146.804 259.014 132.709 283.778C127.86 292.313 122.623 302.076 121.071 305.374C113.506 321.603 110.014 337.25 109.303 358.264C108.915 370.031 109.303 374.622 110.596 374.169C110.984 374.04 112.536 370.678 114.088 366.669C115.575 362.596 117.903 357.423 119.196 355.031C122.752 348.694 131.222 335.827 138.916 325.223C154.499 303.693 160.77 292.895 166.331 277.636C172.279 261.407 174.09 250.35 174.09 230.177C174.025 207.741 172.861 202.051 163.421 178.128C160.189 169.981 157.344 163.127 157.15 162.933C156.956 162.739 156.956 163.127 157.15 163.774Z" fill="#252525"/>
<path d="M4.7763 403.316C2.58353 399.302 5.29001 394.195 9.71391 394.19L176.271 394C180.719 393.995 183.433 399.147 181.205 403.169C166.165 430.326 149.617 470.185 140.833 494.422C112.34 590.944 120.944 660.54 132.825 756.636L132.909 757.316C136.142 783.471 139.563 811.138 142.451 841.018C142.647 843.048 141.837 845.075 140.302 846.337L96.646 882.221C94.5888 883.911 91.6952 883.928 89.6205 882.26L46.3367 847.474C44.7231 846.177 43.8949 844.046 44.1586 841.937C46.8406 820.49 49.646 800.18 52.3313 780.74L52.3317 780.737C67.0955 673.853 78.229 593.252 45.2635 494.422C36.3063 470.259 19.5966 430.441 4.7763 403.316Z" fill="#252525" stroke="#252525" stroke-width="8"/>
<path d="M398.113 586.449C388.738 584.887 379.07 584.105 369.109 584.105C336.492 584.105 314.52 596.605 303.191 621.605V838.402H232V521.41H299.969L301.727 556.859C318.914 529.32 342.742 515.551 373.211 515.551C383.367 515.551 391.766 516.918 398.406 519.652L398.113 586.449Z" fill="#252525"/>
<path d="M419.207 676.977C419.207 645.922 425.359 617.992 437.664 593.188C449.969 568.188 467.254 549.047 489.52 535.766C511.785 522.289 537.371 515.551 566.277 515.551C609.051 515.551 643.719 529.32 670.281 556.859C697.039 584.398 711.492 620.922 713.641 666.43L713.934 683.129C713.934 714.379 707.879 742.309 695.77 766.918C683.855 791.527 666.668 810.57 644.207 824.047C621.941 837.523 596.16 844.262 566.863 844.262C522.137 844.262 486.297 829.418 459.344 799.73C432.586 769.848 419.207 730.102 419.207 680.492V676.977ZM490.398 683.129C490.398 715.746 497.137 741.332 510.613 759.887C524.09 778.246 542.84 787.426 566.863 787.426C590.887 787.426 609.539 778.051 622.82 759.301C636.297 740.551 643.035 713.109 643.035 676.977C643.035 644.945 636.102 619.555 622.234 600.805C608.562 582.055 589.91 572.68 566.277 572.68C543.035 572.68 524.578 581.957 510.906 600.512C497.234 618.871 490.398 646.41 490.398 683.129Z" fill="#252525"/>
<path d="M840.203 521.41L842.254 558.031C865.691 529.711 896.453 515.551 934.539 515.551C1000.55 515.551 1034.15 553.344 1035.32 628.93V838.402H964.129V633.031C964.129 612.914 959.734 598.07 950.945 588.5C942.352 578.734 928.191 573.852 908.465 573.852C879.754 573.852 858.367 586.84 844.305 612.816V838.402H773.113V521.41H840.203Z" fill="#252525"/>
<path d="M1338.54 779.223H1532.2V838.402H1264.42V411.84H1338.54V779.223Z" fill="#252525"/>
<path d="M1721.75 844.262C1676.63 844.262 1640.01 830.102 1611.88 801.781C1583.95 773.266 1569.99 735.375 1569.99 688.109V679.32C1569.99 647.68 1576.04 619.457 1588.15 594.652C1600.46 569.652 1617.64 550.219 1639.71 536.352C1661.79 522.484 1686.39 515.551 1713.54 515.551C1756.71 515.551 1790.01 529.32 1813.45 556.859C1837.08 584.398 1848.89 623.363 1848.89 673.754V702.465H1641.77C1643.91 728.637 1652.61 749.34 1667.84 764.574C1683.27 779.809 1702.61 787.426 1725.85 787.426C1758.46 787.426 1785.03 774.242 1805.54 747.875L1843.91 784.496C1831.22 803.441 1814.23 818.188 1792.94 828.734C1771.84 839.086 1748.11 844.262 1721.75 844.262ZM1713.25 572.68C1693.72 572.68 1677.9 579.516 1665.79 593.188C1653.88 606.859 1646.26 625.902 1642.94 650.316H1778.58V645.043C1777.02 621.215 1770.67 603.246 1759.54 591.137C1748.41 578.832 1732.98 572.68 1713.25 572.68Z" fill="#252525"/>
<path d="M1891.96 677.562C1891.96 628.344 1903.48 589.086 1926.53 559.789C1949.77 530.297 1980.54 515.551 2018.82 515.551C2054.95 515.551 2083.37 528.148 2104.07 553.344L2107.29 521.41H2171.45V828.734C2171.45 870.336 2158.46 903.148 2132.49 927.172C2106.71 951.195 2071.84 963.207 2027.9 963.207C2004.66 963.207 1981.9 958.324 1959.64 948.559C1937.57 938.988 1920.77 926.391 1909.25 910.766L1942.94 867.992C1964.81 893.969 1991.77 906.957 2023.8 906.957C2047.43 906.957 2066.08 900.512 2079.75 887.621C2093.43 874.926 2100.26 856.176 2100.26 831.371V809.984C2079.75 832.836 2052.41 844.262 2018.23 844.262C1981.12 844.262 1950.75 829.516 1927.12 800.023C1903.68 770.531 1891.96 729.711 1891.96 677.562ZM1962.86 683.715C1962.86 715.551 1969.3 740.648 1982.2 759.008C1995.28 777.172 2013.35 786.254 2036.39 786.254C2065.11 786.254 2086.39 773.949 2100.26 749.34V609.887C2086.79 585.863 2065.69 573.852 2036.98 573.852C2013.54 573.852 1995.28 583.129 1982.2 601.684C1969.3 620.238 1962.86 647.582 1962.86 683.715Z" fill="#252525"/>
<path d="M2320.57 838.402H2249.38V521.41H2320.57V838.402ZM2244.99 439.086C2244.99 428.148 2248.41 419.066 2255.24 411.84C2262.27 404.613 2272.23 401 2285.12 401C2298.02 401 2307.98 404.613 2315.01 411.84C2322.04 419.066 2325.55 428.148 2325.55 439.086C2325.55 449.828 2322.04 458.812 2315.01 466.039C2307.98 473.07 2298.02 476.586 2285.12 476.586C2272.23 476.586 2262.27 473.07 2255.24 466.039C2248.41 458.812 2244.99 449.828 2244.99 439.086Z" fill="#252525"/>
<path d="M2385.03 676.977C2385.03 645.922 2391.18 617.992 2403.48 593.188C2415.79 568.188 2433.07 549.047 2455.34 535.766C2477.61 522.289 2503.19 515.551 2532.1 515.551C2574.87 515.551 2609.54 529.32 2636.1 556.859C2662.86 584.398 2677.31 620.922 2679.46 666.43L2679.75 683.129C2679.75 714.379 2673.7 742.309 2661.59 766.918C2649.68 791.527 2632.49 810.57 2610.03 824.047C2587.76 837.523 2561.98 844.262 2532.68 844.262C2487.96 844.262 2452.12 829.418 2425.16 799.73C2398.41 769.848 2385.03 730.102 2385.03 680.492V676.977ZM2456.22 683.129C2456.22 715.746 2462.96 741.332 2476.43 759.887C2489.91 778.246 2508.66 787.426 2532.68 787.426C2556.71 787.426 2575.36 778.051 2588.64 759.301C2602.12 740.551 2608.86 713.109 2608.86 676.977C2608.86 644.945 2601.92 619.555 2588.05 600.805C2574.38 582.055 2555.73 572.68 2532.1 572.68C2508.86 572.68 2490.4 581.957 2476.73 600.512C2463.05 618.871 2456.22 646.41 2456.22 683.129Z" fill="#252525"/>
<path d="M2806.02 521.41L2808.07 558.031C2831.51 529.711 2862.27 515.551 2900.36 515.551C2966.38 515.551 2999.97 553.344 3001.14 628.93V838.402H2929.95V633.031C2929.95 612.914 2925.55 598.07 2916.77 588.5C2908.17 578.734 2894.01 573.852 2874.29 573.852C2845.57 573.852 2824.19 586.84 2810.12 612.816V838.402H2738.93V521.41H2806.02Z" fill="#252525"/>
</svg>
