<svg width="171" height="46" viewBox="0 0 171 46" fill="none" xmlns="http://www.w3.org/2000/svg">
<path d="M3.11247 0.212135C3.16768 0.331279 3.24614 0.543413 3.28973 0.685805C3.36528 0.932811 3.3711 0.973495 3.3711 1.56922C3.374 2.25502 3.35366 2.39741 3.16768 3.16749C2.97589 3.9521 2.55162 5.15226 1.73214 7.23583C0.848727 9.47922 0.64531 10.0372 0.526166 10.5196C0.200699 11.8534 0.308219 13.1088 0.842915 14.2537C1.18291 14.9802 1.80769 15.7619 2.47897 16.3024C2.85965 16.6104 3.33041 16.8923 3.37981 16.8429C3.39144 16.8313 3.3711 16.7674 3.33332 16.7005C3.09794 16.2792 2.73469 15.541 2.63589 15.2795C2.42957 14.7361 2.32786 14.2508 2.28717 13.6551C2.2 12.3619 2.58649 10.9758 3.69366 8.5871C4.29519 7.29104 4.55091 6.61686 4.71365 5.91362C4.88801 5.16097 4.79501 4.35021 4.39399 3.13262C4.24579 2.68801 4.01622 2.08938 3.8099 1.6128C3.63844 1.21469 3.04854 0 3.02819 0C3.02238 0 3.06016 0.0958965 3.11247 0.212135Z" fill="#252525"/>
<path d="M5.49826 5.0417C5.59416 5.34973 5.62613 5.5822 5.62613 6.05878C5.62613 7.11655 5.321 8.14816 4.52768 9.74644C3.93777 10.9408 3.43794 12.1003 3.27521 12.6553C3.14735 13.097 3.11829 13.6346 3.20256 14.1083C3.25487 14.4192 3.43504 14.9713 3.5658 15.23C3.67914 15.4566 3.93195 15.8373 3.96973 15.8373C3.98426 15.8373 3.96101 15.7501 3.92033 15.6397C3.77213 15.259 3.80119 14.5732 3.98717 13.9252C4.11503 13.4893 4.25742 13.1609 4.56836 12.5943C4.734 12.2891 5.01297 11.7457 5.18733 11.3883C6.06202 9.58661 6.28578 8.74679 6.21022 7.52919C6.16082 6.7533 5.98356 6.05297 5.62031 5.20152C5.44886 4.79759 5.40237 4.73657 5.49826 5.0417Z" fill="#252525"/>
<path d="M6.88438 7.36061C7.13429 8.05223 7.09361 9.28436 6.78558 10.4903C6.58507 11.2604 6.41943 11.6411 5.78593 12.7541C5.56799 13.1377 5.3326 13.5765 5.26286 13.7247C4.92286 14.4541 4.76594 15.1573 4.73398 16.1017C4.71654 16.6306 4.73398 16.8369 4.7921 16.8166C4.80953 16.8108 4.87927 16.6597 4.94902 16.4795C5.01585 16.2964 5.12047 16.0639 5.17859 15.9564C5.33842 15.6716 5.7191 15.0934 6.0649 14.6168C6.76524 13.6491 7.04712 13.1638 7.29703 12.478C7.56438 11.7486 7.64574 11.2517 7.64574 10.345C7.64284 9.33666 7.59053 9.08094 7.16626 8.00574C7.02096 7.63959 6.8931 7.33155 6.88438 7.32284C6.87566 7.31412 6.87566 7.33155 6.88438 7.36061Z" fill="#252525"/>
<path d="M0.0348897 18.1282C-0.0636615 17.9479 0.0579778 17.7183 0.256805 17.7181L7.74251 17.7096C7.94243 17.7093 8.0644 17.9409 7.96429 18.1216C7.2883 19.3422 6.5446 21.1336 6.1498 22.2229C4.86922 26.561 5.25593 29.6889 5.78988 34.0078L5.79366 34.0384C5.93899 35.2139 6.09271 36.4574 6.2225 37.8003C6.23131 37.8915 6.19491 37.9826 6.12593 38.0393L4.16386 39.6521C4.07141 39.7281 3.94136 39.7288 3.84811 39.6539L1.90277 38.0904C1.83025 38.0321 1.79303 37.9364 1.80488 37.8416C1.92542 36.8777 2.0515 35.9649 2.17218 35.0912L2.17221 35.091C2.83575 30.2872 3.33614 26.6647 1.85454 22.2229C1.45197 21.1369 0.700969 19.3474 0.0348897 18.1282Z" fill="#252525"/>
<path d="M20.598 23.7152C20.0563 23.6249 19.4977 23.5798 18.9221 23.5798C17.0375 23.5798 15.768 24.302 15.1134 25.7465V38.273H11V19.9573H14.9272L15.0288 22.0055C16.0219 20.4143 17.3986 19.6187 19.1591 19.6187C19.7459 19.6187 20.2312 19.6977 20.6149 19.8557L20.598 23.7152Z" fill="#252525"/>
<path d="M21.8168 28.9458C21.8168 27.1515 22.1722 25.5377 22.8832 24.1045C23.5942 22.66 24.5929 21.5541 25.8794 20.7867C27.1659 20.008 28.6442 19.6187 30.3144 19.6187C32.7859 19.6187 34.789 20.4143 36.3237 22.0055C37.8698 23.5967 38.7049 25.707 38.829 28.3364L38.846 29.3013C38.846 31.1069 38.4961 32.7207 37.7964 34.1426C37.1081 35.5645 36.115 36.6648 34.8172 37.4435C33.5307 38.2222 32.041 38.6115 30.3483 38.6115C27.764 38.6115 25.6932 37.7538 24.1358 36.0385C22.5898 34.3119 21.8168 32.0154 21.8168 29.149V28.9458ZM25.9302 29.3013C25.9302 31.1859 26.3195 32.6643 27.0982 33.7364C27.8769 34.7972 28.9602 35.3275 30.3483 35.3275C31.7364 35.3275 32.8141 34.7859 33.5815 33.7025C34.3601 32.6191 34.7495 31.0336 34.7495 28.9458C34.7495 27.0951 34.3489 25.628 33.5476 24.5446C32.7577 23.4613 31.6799 22.9196 30.3144 22.9196C28.9715 22.9196 27.9051 23.4556 27.1151 24.5277C26.3252 25.5885 25.9302 27.1797 25.9302 29.3013Z" fill="#252525"/>
<path d="M46.1418 19.9573L46.2603 22.0732C47.6145 20.4369 49.3919 19.6187 51.5925 19.6187C55.4068 19.6187 57.3479 21.8024 57.4156 26.1697V38.273H53.3022V26.4067C53.3022 25.2443 53.0482 24.3867 52.5404 23.8337C52.0439 23.2694 51.2257 22.9873 50.0859 22.9873C48.427 22.9873 47.1913 23.7378 46.3788 25.2387V38.273H42.2653V19.9573H46.1418Z" fill="#252525"/>
<path d="M74.9357 34.8536H86.1248V38.273H70.653V13.6263H74.9357V34.8536Z" fill="#252525"/>
<path d="M97.077 38.6115C94.4702 38.6115 92.3542 37.7933 90.7292 36.157C89.1154 34.5094 88.3085 32.3201 88.3085 29.5891V29.0813C88.3085 27.2531 88.6583 25.6224 89.358 24.1892C90.069 22.7447 91.0621 21.6218 92.3373 20.8206C93.6125 20.0193 95.0344 19.6187 96.603 19.6187C99.0971 19.6187 101.021 20.4143 102.375 22.0055C103.741 23.5967 104.424 25.8481 104.424 28.7596V30.4185H92.4558C92.5799 31.9307 93.0821 33.127 93.9623 34.0072C94.8539 34.8874 95.9711 35.3275 97.314 35.3275C99.1986 35.3275 100.733 34.5658 101.918 33.0423L104.136 35.1583C103.402 36.2529 102.421 37.105 101.19 37.7143C99.9716 38.3125 98.6005 38.6115 97.077 38.6115ZM96.5861 22.9196C95.4576 22.9196 94.5435 23.3146 93.8438 24.1045C93.1555 24.8945 92.7153 25.9948 92.5235 27.4054H100.361V27.1007C100.271 25.7239 99.9039 24.6857 99.2607 23.986C98.6174 23.2751 97.7259 22.9196 96.5861 22.9196Z" fill="#252525"/>
<path d="M106.912 28.9797C106.912 26.1358 107.578 23.8675 108.909 22.1748C110.252 20.4707 112.03 19.6187 114.242 19.6187C116.329 19.6187 117.971 20.3466 119.168 21.8024L119.354 19.9573H123.061V37.7143C123.061 40.1181 122.31 42.014 120.81 43.402C119.32 44.7901 117.306 45.4841 114.766 45.4841C113.423 45.4841 112.109 45.202 110.822 44.6377C109.547 44.0848 108.577 43.3569 107.911 42.4541L109.857 39.9826C111.121 41.4836 112.679 42.234 114.529 42.234C115.895 42.234 116.973 41.8616 117.763 41.1168C118.553 40.3833 118.948 39.2999 118.948 37.8667V36.631C117.763 37.9513 116.183 38.6115 114.208 38.6115C112.064 38.6115 110.309 37.7595 108.943 36.0554C107.589 34.3514 106.912 31.9928 106.912 28.9797ZM111.008 29.3352C111.008 31.1746 111.381 32.6248 112.126 33.6856C112.882 34.7351 113.926 35.2598 115.257 35.2598C116.916 35.2598 118.146 34.5489 118.948 33.127V25.0694C118.169 23.6813 116.95 22.9873 115.291 22.9873C113.937 22.9873 112.882 23.5233 112.126 24.5954C111.381 25.6675 111.008 27.2474 111.008 29.3352Z" fill="#252525"/>
<path d="M131.677 38.273H127.564V19.9573H131.677V38.273ZM127.31 15.2006C127.31 14.5686 127.507 14.0439 127.902 13.6263C128.309 13.2088 128.884 13 129.629 13C130.374 13 130.949 13.2088 131.355 13.6263C131.762 14.0439 131.965 14.5686 131.965 15.2006C131.965 15.8213 131.762 16.3404 131.355 16.7579C130.949 17.1642 130.374 17.3673 129.629 17.3673C128.884 17.3673 128.309 17.1642 127.902 16.7579C127.507 16.3404 127.31 15.8213 127.31 15.2006Z" fill="#252525"/>
<path d="M135.401 28.9458C135.401 27.1515 135.757 25.5377 136.468 24.1045C137.179 22.66 138.177 21.5541 139.464 20.7867C140.75 20.008 142.229 19.6187 143.899 19.6187C146.37 19.6187 148.373 20.4143 149.908 22.0055C151.454 23.5967 152.289 25.707 152.413 28.3364L152.43 29.3013C152.43 31.1069 152.081 32.7207 151.381 34.1426C150.692 35.5645 149.699 36.6648 148.402 37.4435C147.115 38.2222 145.625 38.6115 143.933 38.6115C141.348 38.6115 139.278 37.7538 137.72 36.0385C136.174 34.3119 135.401 32.0154 135.401 29.149V28.9458ZM139.515 29.3013C139.515 31.1859 139.904 32.6643 140.683 33.7364C141.461 34.7972 142.545 35.3275 143.933 35.3275C145.321 35.3275 146.399 34.7859 147.166 33.7025C147.945 32.6191 148.334 31.0336 148.334 28.9458C148.334 27.0951 147.933 25.628 147.132 24.5446C146.342 23.4613 145.264 22.9196 143.899 22.9196C142.556 22.9196 141.489 23.4556 140.7 24.5277C139.91 25.5885 139.515 27.1797 139.515 29.3013Z" fill="#252525"/>
<path d="M159.726 19.9573L159.845 22.0732C161.199 20.4369 162.976 19.6187 165.177 19.6187C168.991 19.6187 170.932 21.8024 171 26.1697V38.273H166.887V26.4067C166.887 25.2443 166.633 24.3867 166.125 23.8337C165.628 23.2694 164.81 22.9873 163.67 22.9873C162.011 22.9873 160.776 23.7378 159.963 25.2387V38.273H155.85V19.9573H159.726Z" fill="#252525"/>
</svg>
